<svg xmlns="http://www.w3.org/2000/svg" width="25" height="27" viewBox="0 0 25 27" fill="none">
    <g clip-path="url(#clip0_583_7929)">
        <path d="M22.9941 13.8366C22.9446 13.7319 22.9188 13.6167 22.9188 13.4999C22.9188 13.3831 22.9446 13.2679 22.9941 13.1631L23.9256 11.1794C24.4443 10.0749 24.0333 8.75837 22.9901 8.18216L21.1165 7.14723C21.0173 7.09285 20.9314 7.0154 20.8654 6.92095C20.7994 6.82645 20.7553 6.71747 20.7362 6.6024L20.3698 4.42752C20.1657 3.21659 19.0897 2.40288 17.9206 2.57508L15.8205 2.88434C15.7094 2.90104 15.5962 2.89096 15.4895 2.85487C15.3829 2.81878 15.2856 2.75764 15.2052 2.67618L13.6808 1.14097C12.8319 0.286125 11.5022 0.286074 10.6534 1.14097L9.12896 2.67634C9.04857 2.75777 8.9513 2.81889 8.84462 2.85499C8.73794 2.89108 8.62472 2.90117 8.51369 2.88448L6.41355 2.57523C5.24403 2.40293 4.16845 3.21674 3.9644 4.42767L3.59797 6.60245C3.57892 6.71752 3.53473 6.82655 3.4688 6.921C3.40287 7.01546 3.31696 7.0929 3.21773 7.14734L1.34408 8.18226C0.300862 8.75842 -0.110062 10.075 0.408569 11.1796L1.34003 13.1632C1.38961 13.268 1.41539 13.3832 1.41539 13.5C1.41539 13.6168 1.38961 13.732 1.34003 13.8367L0.408521 15.8205C-0.110111 16.925 0.300814 18.2415 1.34403 18.8177L3.21768 19.8527C3.31693 19.907 3.40284 19.9845 3.46878 20.0789C3.53472 20.1734 3.57892 20.2824 3.59797 20.3975L3.9644 22.5723C4.15015 23.6747 5.05813 24.4478 6.10169 24.4477C6.20447 24.4477 6.30876 24.4402 6.41359 24.4247L8.51374 24.1155C8.62476 24.0988 8.73798 24.1088 8.84467 24.1449C8.95135 24.181 9.04862 24.2422 9.12901 24.3236L10.6534 25.8589C11.0779 26.2863 11.6224 26.5 12.1671 26.5C12.7116 26.4999 13.2564 26.2862 13.6807 25.8589L15.2052 24.3236C15.3697 24.158 15.5939 24.0824 15.8205 24.1155L17.9206 24.4247C19.0903 24.597 20.1657 23.7832 20.3698 22.5723L20.7363 20.3975C20.7553 20.2824 20.7995 20.1734 20.8654 20.079C20.9314 19.9845 21.0173 19.907 21.1165 19.8527L22.9901 18.8177C24.0333 18.2416 24.4443 16.925 23.9256 15.8204L22.9941 13.8366ZM22.315 17.493L20.4413 18.5279C19.844 18.8579 19.4343 19.4449 19.3174 20.1383L18.951 22.3132C18.9187 22.5095 18.8139 22.6849 18.6592 22.802C18.5043 22.9191 18.3117 22.9686 18.1224 22.9399L16.0222 22.6306C15.3525 22.5319 14.6897 22.7563 14.2036 23.2458L12.6792 24.7809C12.5422 24.92 12.3584 24.9978 12.1671 24.9978C11.9757 24.9978 11.7919 24.92 11.655 24.7809L10.1305 23.2457C9.71969 22.832 9.18262 22.6078 8.62193 22.6078C8.5192 22.6078 8.41564 22.6153 8.31194 22.6306L6.21179 22.9398C6.02247 22.9685 5.82984 22.919 5.67506 22.8019C5.52028 22.6848 5.41555 22.5094 5.38315 22.3131L5.01669 20.1382C4.89981 19.4448 4.49016 18.8578 3.89275 18.5279L2.0191 17.4929C1.84971 17.4003 1.7218 17.2424 1.66266 17.053C1.60353 16.8635 1.61784 16.6575 1.70256 16.4789L2.63407 14.4951C2.93104 13.8626 2.93104 13.1371 2.63407 12.5047L1.70256 10.5209C1.61784 10.3423 1.60353 10.1363 1.66266 9.9468C1.7218 9.75739 1.84971 9.59946 2.0191 9.50683L3.89275 8.47191C4.49011 8.14189 4.89981 7.55496 5.01664 6.86149L5.38306 4.68665C5.4154 4.49031 5.52013 4.31489 5.67491 4.1978C5.82974 4.08072 6.02233 4.03123 6.21169 4.05991L8.31184 4.36917C8.98135 4.46784 9.64433 4.24354 10.1304 3.75406L11.6549 2.21885C11.7919 2.07981 11.9757 2.00199 12.167 2.00199C12.3584 2.00199 12.5421 2.07981 12.6791 2.21885L14.2035 3.75406C14.6896 4.24359 15.3525 4.46784 16.0221 4.36917L18.1223 4.05991C18.3116 4.03126 18.5042 4.08075 18.659 4.19784C18.8138 4.31492 18.9186 4.49032 18.9509 4.68665L19.3173 6.86154C19.4342 7.55501 19.8439 8.14199 20.4413 8.47191L22.3149 9.50683C22.4843 9.59946 22.6122 9.75739 22.6714 9.9468C22.7305 10.1363 22.7162 10.3423 22.6314 10.5209L21.6999 12.5046C21.403 13.137 21.403 13.8626 21.6999 14.4951L22.6314 16.4788C22.7162 16.6574 22.7305 16.8635 22.6714 17.0529C22.6123 17.2424 22.4844 17.4003 22.315 17.493Z" fill="#FBAE21"/>
        <path d="M17.43 8.02142C17.1488 7.72862 16.6927 7.72862 16.4115 8.02142L6.90473 17.9181C6.62346 18.2109 6.62346 18.6857 6.90473 18.9785C6.97156 19.0482 7.05092 19.1035 7.13834 19.1412C7.2257 19.1789 7.31941 19.1982 7.414 19.1981C7.59829 19.1981 7.78268 19.1249 7.92326 18.9785L17.43 9.08184C17.7114 8.78898 17.7114 8.31428 17.43 8.02142ZM9.28644 6.75189C7.83024 6.75189 6.64551 7.98522 6.64551 9.50114C6.64551 11.0171 7.83024 12.2504 9.28644 12.2504C10.7426 12.2504 11.9274 11.0171 11.9274 9.50114C11.9274 7.98522 10.7426 6.75189 9.28644 6.75189ZM9.28644 10.7508C8.62453 10.7508 8.08604 10.1902 8.08604 9.50109C8.08604 8.81204 8.62453 8.25146 9.28644 8.25146C9.94834 8.25146 10.4869 8.81204 10.4869 9.50109C10.4868 10.1902 9.94834 10.7508 9.28644 10.7508ZM15.0483 14.7496C13.5921 14.7496 12.4074 15.9829 12.4074 17.4988C12.4074 19.0148 13.5921 20.2481 15.0483 20.2481C16.5045 20.2481 17.6893 19.0148 17.6893 17.4988C17.6893 15.9829 16.5045 14.7496 15.0483 14.7496ZM15.0483 18.7485C14.3864 18.7485 13.8479 18.1879 13.8479 17.4988C13.8479 16.8098 14.3864 16.2492 15.0483 16.2492C15.7102 16.2492 16.2487 16.8098 16.2487 17.4988C16.2487 18.1879 15.7102 18.7485 15.0483 18.7485Z" fill="#FBAE21"/>
    </g>
    <defs>
        <clipPath id="clip0_583_7929">
            <rect width="24" height="26" fill="white" transform="translate(0.166992 0.499939)"/>
        </clipPath>
    </defs>
</svg>