<svg xmlns="http://www.w3.org/2000/svg" width="33" height="33" viewBox="0 0 33 33" fill="none">
    <path d="M16.3329 4.9165C9.94504 4.9165 4.74902 10.1129 4.74902 16.5004C4.74902 22.888 9.94504 28.084 16.3329 28.084C22.7204 28.084 27.9164 22.888 27.9168 16.5004C27.9169 10.1129 22.7208 4.9165 16.3329 4.9165ZM16.3329 26.6017C10.7631 26.6017 6.23165 22.0703 6.23165 16.5004C6.23165 10.9306 10.7631 6.39913 16.3329 6.39913C21.9028 6.39913 26.4342 10.9305 26.4342 16.5004C26.4342 22.0703 21.9028 26.6017 16.3329 26.6017Z" fill="#FBAE21"/>
    <path d="M17.2609 10.6745H14.0836C13.674 10.6745 13.3423 11.0062 13.3423 11.4158V16.1316H12.4122C12.0026 16.1316 11.6709 16.4633 11.6709 16.8729C11.6709 17.2825 12.0026 17.6146 12.4122 17.6146H13.3423V18.6362H12.4122C12.0026 18.6362 11.6709 18.9683 11.6709 19.3779C11.6709 19.7875 12.0026 20.1197 12.4122 20.1197H13.3423V21.5846C13.3423 21.9942 13.674 22.3264 14.0836 22.3264C14.4932 22.3264 14.8249 21.9939 14.8249 21.5846V20.1197H18.8893C19.2985 20.1197 19.6306 19.7876 19.6306 19.378C19.6306 18.9683 19.2989 18.6363 18.8893 18.6363H14.8249V17.6146H17.2613C18.4997 17.6146 19.5442 17.2665 20.2823 16.6079C20.9703 15.9943 21.349 15.1522 21.349 14.237C21.349 12.5101 19.9157 10.6745 17.2609 10.6745ZM19.2945 15.5015C18.8327 15.9139 18.1295 16.1316 17.2609 16.1316H14.8249V12.1568H17.2609C18.9708 12.1568 19.8659 13.2029 19.8659 14.2365C19.8659 14.7232 19.6631 15.1726 19.2945 15.5015Z" fill="#FBAE21"/>
</svg>