<svg xmlns="http://www.w3.org/2000/svg" width="33" height="33" viewBox="0 0 33 33" fill="none">
    <path d="M16.4994 15.8341C18.9672 15.8341 20.9749 13.8264 20.9749 11.3586C20.7658 5.43582 12.233 5.43582 12.0239 11.3586C12.0239 13.8264 14.0316 15.8341 16.4994 15.8341ZM16.4994 8.55613C20.197 8.67325 20.197 14.0439 16.4994 14.161C12.8019 14.0439 12.8019 8.67325 16.4994 8.55613ZM25.7014 25.287C25.7014 25.7471 25.325 26.1236 24.8649 26.1236H11.5554C10.4512 26.1068 10.4596 24.4672 11.5554 24.4505H23.9698C23.5599 21.2967 20.8495 18.8456 17.5869 18.8456H15.4035C11.8566 18.8456 8.96215 21.7317 8.96215 25.287C8.94542 26.3913 7.30579 26.3829 7.28906 25.287C7.28906 20.8115 10.928 17.1725 15.4035 17.1725H17.5869C22.0624 17.1725 25.7014 20.8115 25.7014 25.287Z" fill="#FBAE21"/>
</svg>