<svg xmlns="http://www.w3.org/2000/svg" width="33" height="32" viewBox="0 0 33 32" fill="none">
    <path d="M16.4998 1C8.22893 1 1.5 7.72893 1.5 15.9998C1.5 24.2707 8.22893 30.9997 16.4998 30.9997C24.7707 30.9997 31.4997 24.2707 31.4997 15.9998C31.4997 7.72893 24.7707 1 16.4998 1ZM16.4998 29.4997C9.05617 29.4997 2.99998 23.4435 2.99998 15.9998C2.99998 8.55617 9.05617 2.49998 16.4998 2.49998C23.9435 2.49998 29.9997 8.55617 29.9997 15.9998C29.9997 23.4435 23.9435 29.4997 16.4998 29.4997ZM27.599 13.4499L25.3497 16.4483C25.2907 16.5273 25.2167 16.5938 25.1319 16.6441C25.0471 16.6945 24.9532 16.7276 24.8556 16.7416C24.758 16.7556 24.6586 16.7502 24.5631 16.7257C24.4676 16.7013 24.3779 16.6583 24.299 16.5991L21.299 14.3499C21.1399 14.2305 21.0347 14.0528 21.0066 13.8559C20.9784 13.659 21.0297 13.459 21.149 13.2999C21.2684 13.1407 21.4461 13.0355 21.643 13.0074C21.8399 12.9793 22.0399 13.0305 22.199 13.1499L23.813 14.3596C23.063 11.0116 20.0713 8.49992 16.4998 8.49992C15.5146 8.4973 14.5385 8.6901 13.6282 9.06717C12.718 9.44423 11.8915 9.99808 11.1966 10.6966C11.127 10.7663 11.0443 10.8215 10.9534 10.8592C10.8624 10.8969 10.7649 10.9163 10.6664 10.9163C10.5679 10.9163 10.4704 10.8969 10.3794 10.8592C10.2885 10.8215 10.2058 10.7663 10.1362 10.6966C10.0665 10.627 10.0113 10.5443 9.9736 10.4534C9.93592 10.3624 9.91652 10.2649 9.91652 10.1664C9.91652 10.0679 9.93592 9.97041 9.9736 9.87943C10.0113 9.78846 10.0665 9.70579 10.1362 9.63616C10.9699 8.79782 11.9616 8.13317 13.054 7.68066C14.1463 7.22816 15.3175 6.99678 16.4998 6.99994C20.7905 6.99994 24.383 10.0194 25.2792 14.0431L26.3997 12.5499C26.4576 12.468 26.5314 12.3986 26.6166 12.3457C26.7017 12.2928 26.7967 12.2575 26.8958 12.242C26.9948 12.2264 27.096 12.2309 27.1933 12.2551C27.2906 12.2794 27.3821 12.3229 27.4623 12.383C27.5425 12.4432 27.6098 12.5189 27.6602 12.6056C27.7107 12.6922 27.7432 12.7881 27.756 12.8876C27.7687 12.987 27.7614 13.088 27.7344 13.1846C27.7075 13.2812 27.6614 13.3714 27.599 13.4499ZM22.8635 21.303C22.9332 21.3726 22.9885 21.4553 23.0263 21.5463C23.064 21.6372 23.0834 21.7348 23.0834 21.8333C23.0834 21.9318 23.064 22.0293 23.0263 22.1203C22.9885 22.2113 22.9332 22.2939 22.8635 22.3635C22.0298 23.2019 21.038 23.8665 19.9457 24.319C18.8534 24.7715 17.6822 25.0029 16.4998 24.9997C12.2091 24.9997 8.61667 21.9803 7.72043 17.9566L6.59995 19.4498C6.4806 19.6089 6.30293 19.7141 6.10602 19.7423C5.90911 19.7704 5.70908 19.7191 5.54996 19.5998C5.39083 19.4805 5.28563 19.3028 5.2575 19.1059C5.22937 18.909 5.28061 18.7089 5.39996 18.5498L7.64918 15.5513C7.70823 15.4724 7.78226 15.4058 7.86705 15.3555C7.95183 15.3052 8.0457 15.2721 8.1433 15.2581C8.24089 15.2441 8.34028 15.2495 8.4358 15.2739C8.53131 15.2984 8.62106 15.3414 8.69992 15.4006L11.6999 17.6498C11.7787 17.7089 11.8451 17.7829 11.8952 17.8677C11.9454 17.9524 11.9784 18.0462 11.9923 18.1437C12.0063 18.2412 12.0009 18.3405 11.9764 18.4359C11.952 18.5314 11.909 18.621 11.8499 18.6998C11.7908 18.7786 11.7168 18.845 11.632 18.8952C11.5473 18.9453 11.4535 18.9783 11.356 18.9923C11.2585 19.0062 11.1592 19.0008 11.0638 18.9763C10.9684 18.9519 10.8787 18.9089 10.7999 18.8498L9.18592 17.6401C9.93666 20.988 12.9284 23.4998 16.4998 23.4998C18.5023 23.4998 20.3863 22.7198 21.803 21.303C21.9437 21.1624 22.1344 21.0834 22.3333 21.0834C22.5321 21.0834 22.7229 21.1624 22.8635 21.303Z" fill="white"/>
</svg>