<svg xmlns="http://www.w3.org/2000/svg" width="20" height="20" viewBox="0 0 20 20" fill="none">
    <path d="M17.9181 8.45504C17.8445 8.4431 17.7699 8.43757 17.6953 8.43854H4.9967L5.27359 8.30975C5.54425 8.18164 5.79049 8.00731 6.00125 7.7946L9.56227 4.23358C10.0313 3.78588 10.1101 3.06566 9.74901 2.52712C9.3288 1.95325 8.52294 1.82865 7.94902 2.24886C7.90265 2.28282 7.8586 2.31985 7.81718 2.3597L1.37772 8.79915C0.874481 9.30183 0.874038 10.1173 1.37672 10.6205L1.37772 10.6215L7.81718 17.061C8.32082 17.5632 9.13626 17.5621 9.63854 17.0584C9.67806 17.0188 9.71496 16.9766 9.74901 16.9322C10.1101 16.3936 10.0313 15.6734 9.56227 15.2257L6.00769 11.6583C5.81874 11.4691 5.60149 11.3105 5.36375 11.1882L4.97738 11.0143H17.6245C18.2824 11.0388 18.8596 10.5792 18.9832 9.9325C19.097 9.23039 18.6202 8.56894 17.9181 8.45504Z" fill="white"/>
</svg>