<svg width="25" height="24" viewBox="0 0 25 24" fill="none" xmlns="http://www.w3.org/2000/svg">
    <path fill-rule="evenodd" clip-rule="evenodd" d="M18.1326 5.6304C17.8427 5.7848 17.2529 5.98999 15.4869 5.98999C14.5136 5.98999 13.6521 5.92632 13.6158 5.92347C13.4207 5.9092 13.2463 5.80232 13.151 5.63894C13.0558 5.4756 13.0522 5.27755 13.1421 5.11133C13.409 4.61675 14.7903 2.12229 15.7786 1.59607C16.1381 1.40475 16.5444 1.30359 16.9539 1.30359C17.8307 1.30359 18.6405 1.7578 19.0671 2.489C19.7159 3.60121 19.2968 5.01058 18.1326 5.6304ZM16.9536 2.42004C16.7429 2.42004 16.5333 2.47246 16.3475 2.57138C15.985 2.76452 15.2499 3.79452 14.6162 4.85755C14.8786 4.86672 15.178 4.87366 15.4867 4.87366C17.033 4.87366 17.4671 4.70641 17.5632 4.65522C18.1644 4.33462 18.3811 3.60687 18.0459 3.03251C17.8253 2.6548 17.4071 2.42004 16.9536 2.42004ZM9.47915 1.59619C9.11982 1.40486 8.71331 1.3037 8.30404 1.3037C7.42742 1.3037 6.61743 1.75792 6.19085 2.4889C5.54204 3.60111 5.96091 5.01048 7.12534 5.63031C7.41527 5.78471 8.00497 5.98989 9.771 5.98989C10.7353 5.98989 11.5893 5.92745 11.6406 5.9237L11.6419 5.9236C11.837 5.90892 12.0114 5.80225 12.1066 5.63908C12.2019 5.47571 12.2053 5.27787 12.1156 5.11146C11.8487 4.61685 10.4674 2.1224 9.47915 1.59619ZM9.77079 4.87345C8.2242 4.87345 7.79039 4.7062 7.6943 4.655C7.09309 4.33479 6.87661 3.60686 7.21159 3.03229C7.43214 2.65456 7.8504 2.41983 8.30382 2.41983C8.51455 2.41983 8.72421 2.47224 8.90996 2.57117C9.27269 2.76431 10.0078 3.79454 10.6414 4.85694C10.3791 4.86672 10.08 4.87345 9.77079 4.87345ZM13.3876 6.64736H21.6941C22.3828 6.64736 22.9414 7.18073 22.9411 7.83852L22.9409 10.4223C22.9409 11.08 22.3827 11.6134 21.6941 11.6134H13.3876V6.64736ZM11.8709 6.64742V11.6134H3.5643C2.87581 11.6134 2.3175 11.08 2.3175 10.4223V7.83853C2.3175 7.18079 2.87575 6.64742 3.5643 6.64742H11.8709ZM18.5552 15.8762C18.7322 16.0453 18.6598 16.2984 18.4354 16.2943L17.002 16.4395L16.85 17.809C16.854 18.0233 16.5893 18.0926 16.4123 17.9233L13.3869 15.0334V22.6036H20.9731C21.4193 22.6036 21.7809 22.258 21.7809 21.8318L21.7811 12.986H15.5296L18.5552 15.8762ZM8.2559 16.4397L8.40791 17.8092C8.40386 18.0236 8.66845 18.0925 8.84544 17.9232L11.8705 15.0331V22.6033H4.28433C3.83813 22.6033 3.47646 22.2578 3.47646 21.8315V12.9862H9.72797L6.70267 15.8764C6.52548 16.0455 6.59806 16.2984 6.82244 16.2945L8.2559 16.4397Z" fill="#F7A34D"/>
</svg>