<svg xmlns="http://www.w3.org/2000/svg" width="14" height="14" viewBox="0 0 14 14" fill="none">
    <path d="M13.1386 13.1353C13.0238 13.2509 12.8873 13.3426 12.7369 13.4052C12.5865 13.4678 12.4252 13.5 12.2623 13.5C12.0994 13.5 11.9381 13.4678 11.7877 13.4052C11.6373 13.3426 11.5008 13.2509 11.386 13.1353L7.00774 8.75735L2.84866 12.9162C2.73391 13.0316 2.59747 13.1231 2.44719 13.1856C2.29691 13.2481 2.13576 13.2802 1.973 13.2802C1.81025 13.2802 1.64909 13.2481 1.49882 13.1856C1.34854 13.1231 1.2121 13.0316 1.09734 12.9162C0.865148 12.684 0.734708 12.3691 0.734708 12.0408C0.734708 11.7125 0.865148 11.3977 1.09734 11.1655L5.25642 7.00665L0.878117 2.62868C0.759822 2.51446 0.665466 2.37785 0.600555 2.22679C0.535643 2.07574 0.501476 1.91327 0.500047 1.74887C0.498618 1.58448 0.529955 1.42144 0.592231 1.26928C0.654507 1.11712 0.746473 0.978886 0.862765 0.862635C0.979057 0.746385 1.11734 0.654451 1.26956 0.592198C1.42177 0.529944 1.58487 0.498618 1.74932 0.500047C1.91378 0.501475 2.0763 0.535629 2.22741 0.600518C2.37852 0.665406 2.51519 0.759729 2.62944 0.877982L7.00774 5.25596L11.1668 1.09713C11.2811 0.978876 11.4177 0.884553 11.5689 0.819664C11.72 0.754776 11.8825 0.720621 12.0469 0.719192C12.2114 0.717764 12.3745 0.749091 12.5267 0.811344C12.6789 0.873598 12.8172 0.965532 12.9335 1.08178C13.0498 1.19803 13.1418 1.33627 13.204 1.48843C13.2663 1.64059 13.2976 1.80362 13.2962 1.96802C13.2948 2.13242 13.2606 2.29488 13.1957 2.44594C13.1308 2.59699 13.0364 2.73361 12.9181 2.84782L8.75906 7.00665L13.1374 11.3846C13.3696 11.6168 13.5 11.9317 13.5 12.26C13.5 12.5883 13.3696 12.9031 13.1374 13.1353H13.1386Z" fill="#10162C"/>
</svg>