<svg xmlns="http://www.w3.org/2000/svg" width="22" height="22" viewBox="0 0 22 22" fill="none">
    <path d="M17.4167 1.83331H8.25C6.73122 1.83331 5.5 3.06453 5.5 4.58331V13.75C5.5 15.2688 6.73122 16.5 8.25 16.5H17.4167C18.9354 16.5 20.1667 15.2688 20.1667 13.75V4.58331C20.1667 3.06453 18.9354 1.83331 17.4167 1.83331Z" fill="#B5C2E5"/>
    <path d="M13.7502 20.1667H4.5835C3.85415 20.1667 3.15468 19.8769 2.63895 19.3612C2.12323 18.8455 1.8335 18.146 1.8335 17.4167V8.25C1.8335 7.52065 2.12323 6.82118 2.63895 6.30546C3.15468 5.78973 3.85415 5.5 4.5835 5.5H13.7502C14.4795 5.5 15.179 5.78973 15.6947 6.30546C16.2104 6.82118 16.5002 7.52065 16.5002 8.25V17.4167C16.5002 18.146 16.2104 18.8455 15.6947 19.3612C15.179 19.8769 14.4795 20.1667 13.7502 20.1667ZM4.5835 7.33333C4.34038 7.33333 4.10722 7.42991 3.93532 7.60182C3.76341 7.77373 3.66683 8.00688 3.66683 8.25V17.4167C3.66683 17.6598 3.76341 17.8929 3.93532 18.0648C4.10722 18.2368 4.34038 18.3333 4.5835 18.3333H13.7502C13.9933 18.3333 14.2264 18.2368 14.3983 18.0648C14.5703 17.8929 14.6668 17.6598 14.6668 17.4167V8.25C14.6668 8.00688 14.5703 7.77373 14.3983 7.60182C14.2264 7.42991 13.9933 7.33333 13.7502 7.33333H4.5835Z" fill="#B5C2E5"/>
</svg>