<svg xmlns="http://www.w3.org/2000/svg" width="20" height="20" viewBox="0 0 20 20" fill="none">
    <path fill-rule="evenodd" clip-rule="evenodd" d="M10 2.70833C10.3452 2.70833 10.625 2.98815 10.625 3.33333V11.8244L12.4747 9.97472C12.7188 9.73064 13.1145 9.73064 13.3586 9.97472C13.6027 10.2188 13.6027 10.6145 13.3586 10.8586L10.4419 13.7753C10.1979 14.0193 9.80214 14.0193 9.55806 13.7753L6.64139 10.8586C6.39731 10.6145 6.39731 10.2188 6.64139 9.97472C6.88547 9.73064 7.2812 9.73064 7.52527 9.97472L9.375 11.8244V3.33333C9.375 2.98815 9.65482 2.70833 10 2.70833ZM15.625 16.6667C15.625 17.0118 15.3452 17.2917 15 17.2917L5 17.2917C4.65482 17.2917 4.375 17.0118 4.375 16.6667C4.375 16.3215 4.65482 16.0417 5 16.0417L15 16.0417C15.3452 16.0417 15.625 16.3215 15.625 16.6667Z" fill="white"/>
</svg>