<svg xmlns="http://www.w3.org/2000/svg" width="22" height="22" viewBox="0 0 22 22" fill="none">
    <path fill-rule="evenodd" clip-rule="evenodd" d="M15.6436 2.41865L18.3936 5.38865C18.508 5.51842 18.5683 5.68709 18.5621 5.85997C18.556 6.03285 18.4839 6.19681 18.3606 6.31815L16.3036 8.24865L12.6516 4.27765L14.6811 2.38565C14.7462 2.32424 14.8229 2.27634 14.9067 2.24474C14.9905 2.21313 15.0797 2.19844 15.1692 2.20151C15.2587 2.20458 15.3467 2.22535 15.4281 2.26262C15.5095 2.29989 15.5828 2.35292 15.6436 2.41865ZM11.7386 5.13565L3.20395 13.1313L2.92895 17.0871L6.89995 17.0926L15.3864 9.13277L11.7399 5.13427L11.7386 5.13565ZM2.2002 18.5405H19.8016V19.8H2.20157L2.2002 18.5405Z" fill="#B5C2E5"/>
</svg>