<svg width="42" height="42" viewBox="0 0 42 42" fill="none" xmlns="http://www.w3.org/2000/svg">
<rect width="42" height="42" rx="9.6" fill="#242C54"/>
<g clip-path="url(#clip0_1127_5993)">
<path d="M12.8849 30.8747C12.3946 30.9032 11.9124 30.7402 11.5399 30.4201C10.8054 29.6812 10.8054 28.4878 11.5399 27.7489L27.6234 11.6653C28.3874 10.9505 29.5862 10.9902 30.3011 11.7542C30.9475 12.445 30.9852 13.5069 30.3893 14.2418L14.211 30.4201C13.8434 30.7356 13.3688 30.8983 12.8849 30.8747Z" fill="#7F8BAD"/>
<path d="M28.95 30.8747C28.453 30.8726 27.9767 30.6753 27.6238 30.3254L11.5402 14.2417C10.8597 13.447 10.9523 12.2511 11.7469 11.5706C12.4562 10.9632 13.5022 10.9632 14.2114 11.5706L30.3897 27.6542C31.1535 28.3692 31.1929 29.5681 30.4779 30.3319C30.4494 30.3622 30.4201 30.3916 30.3897 30.4201C30.1937 30.5905 29.9647 30.7188 29.7171 30.797C29.4694 30.8752 29.2083 30.9017 28.95 30.8747Z" fill="#7F8BAD"/>
</g>
<defs>
<clipPath id="clip0_1127_5993">
<rect width="20" height="20" fill="white" transform="translate(10.989 11)"/>
</clipPath>
</defs>
</svg>
