<svg xmlns="http://www.w3.org/2000/svg" width="133" height="133" viewBox="0 0 133 133" fill="none">
  <g opacity="0.7">
    <path d="M61.5503 30.9497C64.2839 28.2161 68.7161 28.2161 71.4497 30.9497L102.05 61.5503C104.784 64.2839 104.784 68.7161 102.05 71.4497L71.4497 102.05C68.7161 104.784 64.2839 104.784 61.5503 102.05L30.9497 71.4497C28.2161 68.7161 28.2161 64.2839 30.9497 61.5503L61.5503 30.9497Z" fill="url(#paint0_linear_924_7053)"/>
    <path d="M64 3.75277C65.547 2.85961 67.453 2.85961 69 3.75278L119.591 32.9613C121.138 33.8545 122.091 35.5051 122.091 37.2915V95.7085C122.091 97.4949 121.138 99.1455 119.591 100.039L69 129.247C67.453 130.14 65.547 130.14 64 129.247L13.4093 100.039C11.8623 99.1455 10.9093 97.4949 10.9093 95.7085V37.2915C10.9093 35.5051 11.8623 33.8545 13.4093 32.9613L64 3.75278L63 2.02072L64 3.75277Z" stroke="url(#paint1_linear_924_7053)" stroke-width="4"/>
    <path d="M63.5 11.8868C65.3564 10.815 67.6436 10.815 69.5 11.8868L112.296 36.5953C114.153 37.6671 115.296 39.6479 115.296 41.7915V91.2085C115.296 93.3521 114.153 95.3329 112.296 96.4047L69.5 121.113C67.6436 122.185 65.3564 122.185 63.5 121.113L20.7035 96.4047C18.8471 95.3329 17.7035 93.3521 17.7035 91.2085V41.7915C17.7035 39.6479 18.8471 37.6671 20.7035 36.5953L63.5 11.8868Z" stroke="url(#paint2_linear_924_7053)" stroke-width="2"/>
  </g>
  <defs>
    <linearGradient id="paint0_linear_924_7053" x1="66.5" y1="26" x2="66.5" y2="107" gradientUnits="userSpaceOnUse">
      <stop stop-color="#6541A8" stop-opacity="0.48"/>
      <stop offset="1" stop-color="#8957E3"/>
    </linearGradient>
    <linearGradient id="paint1_linear_924_7053" x1="66.5" y1="0" x2="66.5" y2="133" gradientUnits="userSpaceOnUse">
      <stop stop-color="#6541A8" stop-opacity="0.48"/>
      <stop offset="1" stop-color="#8957E3"/>
    </linearGradient>
    <linearGradient id="paint2_linear_924_7053" x1="66.5" y1="9" x2="66.5" y2="124" gradientUnits="userSpaceOnUse">
      <stop stop-color="#6541A8" stop-opacity="0.48"/>
      <stop offset="1" stop-color="#8957E3"/>
    </linearGradient>
  </defs>
</svg>