<svg xmlns="http://www.w3.org/2000/svg" width="20" height="20" viewBox="0 0 20 20" fill="none">
    <path d="M18.1864 13.4242L15.7268 12.153L17.6387 6.96557C17.6776 6.86003 17.681 6.74642 17.6486 6.63911C17.6161 6.5318 17.5491 6.43562 17.4561 6.36275C17.3632 6.28988 17.2484 6.24359 17.1264 6.22974C17.0043 6.21589 16.8804 6.23511 16.7705 6.28496L12.4077 8.25784L10.5804 3.96032C10.5352 3.85423 10.4556 3.76301 10.352 3.69868C10.2483 3.63435 10.1256 3.59994 9.99991 3.59998C9.87422 3.59994 9.75148 3.63436 9.64785 3.69869C9.54423 3.76302 9.4646 3.85424 9.41945 3.96032L7.60129 8.2361L3.66354 6.29355C3.55294 6.23875 3.42651 6.21576 3.30109 6.22764C3.17568 6.23951 3.05725 6.28569 2.9616 6.36001C2.86582 6.4341 2.79717 6.53274 2.76473 6.64289C2.7323 6.75304 2.7376 6.8695 2.77995 6.97686L4.68476 11.8005L1.79188 13.4355C1.70258 13.4862 1.62895 13.5565 1.57791 13.6399C1.52686 13.7234 1.50005 13.8171 1.5 13.9125C1.5 14.1063 1.61069 14.2868 1.79226 14.3895L5.10937 16.2645C5.2082 16.3204 5.32242 16.35 5.43898 16.35H7.62824L8.13406 15.225L6.96396 14.5901C6.5937 14.3891 6.63764 13.8914 7.03859 13.7463L8.13406 13.35L7.69124 12.1485C7.55858 11.7885 7.99268 11.4735 8.35261 11.6689L9.37796 12.225L9.77271 10.9758C9.89749 10.5806 10.517 10.5806 10.6418 10.9758L11.0365 12.225L11.9313 11.6857C12.3281 11.4465 12.8111 11.8541 12.5744 12.2287L11.8658 13.35L13.1573 13.7392C13.5989 13.8723 13.642 14.4218 13.2258 14.61L11.8658 15.225L12.695 16.35H14.1463C14.252 16.35 14.3561 16.3256 14.4485 16.2791L18.1802 14.4041C18.2766 14.3557 18.357 14.2849 18.4132 14.1991C18.4694 14.1133 18.4994 14.0155 18.5 13.9158C18.5006 13.8161 18.4719 13.718 18.4168 13.6316C18.3617 13.5452 18.2822 13.4736 18.1864 13.4242Z" fill="#69DD89"/>
</svg>