<svg xmlns="http://www.w3.org/2000/svg" width="32" height="32" viewBox="0 0 32 32" fill="none">
    <path fill-rule="evenodd" clip-rule="evenodd" d="M11.8337 5L8.93366 8.86667C8.24119 9.78995 7.15444 10.3333 6.00033 10.3333H5.33366C4.41318 10.3333 3.66699 11.0795 3.66699 12V25.3333C3.66699 26.2538 4.41318 27 5.33366 27H26.667C27.5875 27 28.3337 26.2538 28.3337 25.3333V12C28.3337 11.0795 27.5875 10.3333 26.667 10.3333H26.0003C24.8462 10.3333 23.7595 9.78995 23.067 8.86667L20.167 5H11.8337ZM10.2937 3.72C10.6336 3.26675 11.1671 3 11.7337 3H20.267C20.8336 3 21.3671 3.26675 21.707 3.72L24.667 7.66667C24.9818 8.08634 25.4757 8.33333 26.0003 8.33333H26.667C28.692 8.33333 30.3337 9.97496 30.3337 12V25.3333C30.3337 27.3584 28.692 29 26.667 29H5.33366C3.30862 29 1.66699 27.3584 1.66699 25.3333V12C1.66699 9.97496 3.30861 8.33333 5.33366 8.33333H6.00033C6.52492 8.33333 7.0189 8.08634 7.33366 7.66667L10.2937 3.72Z" fill="white"/>
    <path fill-rule="evenodd" clip-rule="evenodd" d="M16.0003 13C13.6071 13 11.667 14.9401 11.667 17.3333C11.667 19.7266 13.6071 21.6667 16.0003 21.6667C18.3936 21.6667 20.3337 19.7266 20.3337 17.3333C20.3337 14.9401 18.3936 13 16.0003 13ZM9.66699 17.3333C9.66699 13.8355 12.5025 11 16.0003 11C19.4981 11 22.3337 13.8355 22.3337 17.3333C22.3337 20.8311 19.4981 23.6667 16.0003 23.6667C12.5025 23.6667 9.66699 20.8311 9.66699 17.3333Z" fill="white"/>
</svg>