<svg xmlns="http://www.w3.org/2000/svg" width="24" height="24" viewBox="0 0 24 24" fill="none">
    <path fill-rule="evenodd" clip-rule="evenodd" d="M18 8.75C16.2051 8.75 14.75 10.2051 14.75 12C14.75 13.7949 16.2051 15.25 18 15.25C19.7949 15.25 21.25 13.7949 21.25 12C21.25 10.2051 19.7949 8.75 18 8.75ZM13.3089 11.25C13.6685 8.98301 15.6318 7.25 18 7.25C20.6234 7.25 22.75 9.37665 22.75 12C22.75 14.6234 20.6234 16.75 18 16.75C15.6318 16.75 13.6685 15.017 13.3089 12.75H6.75V15C6.75 15.4142 6.41421 15.75 6 15.75C5.58579 15.75 5.25 15.4142 5.25 15V12.75H2.75V15C2.75 15.4142 2.41421 15.75 2 15.75C1.58579 15.75 1.25 15.4142 1.25 15V12C1.25 11.5858 1.58579 11.25 2 11.25H13.3089Z" fill="white"/>
</svg>