<svg width="15" height="15" viewBox="0 0 15 15" fill="none" xmlns="http://www.w3.org/2000/svg">
    <g clip-path="url(#clip0_500_4068)">
        <path d="M1.31868 0C2.04697 0 2.63736 0.590392 2.63736 1.31868V12.8984C2.63736 13.6266 2.04697 14.217 1.31868 14.217C0.590394 14.217 0 13.6266 0 12.8984V1.31868C0 0.590392 0.590394 0 1.31868 0ZM7.5 0C8.22829 0 8.81868 0.590392 8.81868 1.31868V12.8984C8.81868 13.6266 8.22829 14.217 7.5 14.217C6.77171 14.217 6.18132 13.6266 6.18132 12.8984V1.31868C6.18132 0.590392 6.77171 0 7.5 0ZM13.6813 0C14.4096 0 15 0.590392 15 1.31868V12.8984C15 13.6266 14.4096 14.217 13.6813 14.217C12.953 14.217 12.3626 13.6266 12.3626 12.8984V1.31868C12.3626 0.590392 12.953 0 13.6813 0Z" fill="#F7A34D"/>
    </g>
    <defs>
        <clipPath id="clip0_500_4068">
            <rect width="15" height="15" fill="white"/>
        </clipPath>
    </defs>
</svg>