<svg width="21" height="18" viewBox="0 0 21 18" fill="none" xmlns="http://www.w3.org/2000/svg">
    <path d="M3.86523 0.295526L0.132264 5.42836C-0.0526085 5.684 -0.0334419 6.06733 0.17601 6.30327L9.97505 17.5022C10.2368 17.7989 10.7632 17.7989 11.025 17.5022L20.824 6.30327C21.0334 6.06733 21.0526 5.684 20.8677 5.42836L17.1348 0.295526C17.0041 0.11849 16.7861 0.00946354 16.5661 0.0111371H4.43393C4.19393 0.00883354 3.97043 0.145367 3.86523 0.295526ZM5.44737 1.41103H9.02723L6.57747 4.40762L5.44737 1.41103ZM11.9728 1.41103H15.5526L14.4225 4.40762L11.9728 1.41103ZM10.4927 1.81204L13.2195 5.144H7.77319L10.4927 1.81204ZM4.23707 2.16929L5.35988 5.144H2.07166L4.23707 2.16929ZM16.7629 2.16929L18.9283 5.144H15.6401L16.7629 2.16929ZM2.24664 6.54386H5.88483L8.64081 13.8494L2.24664 6.54386ZM7.37948 6.54386H13.6205L10.5 14.8191L7.37948 6.54386ZM15.1152 6.54386H18.7534L12.3592 13.8494L15.1152 6.54386Z" fill="white" fill-opacity="0.3"/>
</svg>