<svg xmlns="http://www.w3.org/2000/svg" width="12" height="12" viewBox="0 0 12 12" fill="none">
    <g clip-path="url(#clip0_583_1671)">
        <path d="M2.36562 10.3582C3.07236 10.3582 3.64529 9.78525 3.64529 9.07851C3.64529 8.37176 3.07236 7.79883 2.36562 7.79883C1.65887 7.79883 1.08594 8.37176 1.08594 9.07851C1.08594 9.78525 1.65887 10.3582 2.36562 10.3582Z" fill="#E4AAFF"/>
        <path d="M10.5989 9.22334C11.2123 9.22334 11.7096 8.72608 11.7096 8.11268C11.7096 7.49928 11.2123 7.00201 10.5989 7.00201C9.98554 7.00201 9.48828 7.49928 9.48828 8.11268C9.48828 8.72608 9.98554 9.22334 10.5989 9.22334Z" fill="#EFD4FC"/>
        <path d="M9.58547 3.62175C10.0922 3.62175 10.503 3.21097 10.503 2.70425C10.503 2.19752 10.0922 1.78674 9.58547 1.78674C9.07875 1.78674 8.66797 2.19752 8.66797 2.70425C8.66797 3.21097 9.07875 3.62175 9.58547 3.62175Z" fill="#FEFBFF"/>
        <path d="M1.35803 7.23451C2.10805 7.23451 2.71606 6.64132 2.71606 5.90958C2.71606 5.17784 2.10805 4.58466 1.35803 4.58466C0.60801 4.58466 0 5.17784 0 5.90958C0 6.64132 0.60801 7.23451 1.35803 7.23451Z" fill="#E1A3FF"/>
        <path d="M5.25801 12C5.93985 12 6.49259 11.4614 6.49259 10.797C6.49259 10.1326 5.93985 9.59399 5.25801 9.59399C4.57618 9.59399 4.02344 10.1326 4.02344 10.797C4.02344 11.4614 4.57618 12 5.25801 12Z" fill="#ECC2FF"/>
        <path d="M8.43065 11.4729C9.07839 11.4729 9.60349 10.9616 9.60349 10.3309C9.60349 9.70025 9.07839 9.18896 8.43065 9.18896C7.78291 9.18896 7.25781 9.70025 7.25781 10.3309C7.25781 10.9616 7.78291 11.4729 8.43065 11.4729Z" fill="#EFCCFF"/>
        <path d="M2.82795 4.15755C3.61205 4.15755 4.24769 3.53709 4.24769 2.77171C4.24769 2.00633 3.61205 1.38586 2.82795 1.38586C2.04384 1.38586 1.4082 2.00633 1.4082 2.77171C1.4082 3.53709 2.04384 4.15755 2.82795 4.15755Z" fill="#D988FF"/>
        <path d="M10.9498 6.25675C11.5293 6.25675 11.9992 5.79563 11.9992 5.22682C11.9992 4.65801 11.5293 4.1969 10.9498 4.1969C10.3702 4.1969 9.90039 4.65801 9.90039 5.22682C9.90039 5.79563 10.3702 6.25675 10.9498 6.25675Z" fill="#F4DEFF"/>
        <path d="M6.3505 2.99396C7.17726 2.99396 7.84748 2.32374 7.84748 1.49698C7.84748 0.670222 7.17726 0 6.3505 0C5.52374 0 4.85352 0.670222 4.85352 1.49698C4.85352 2.32374 5.52374 2.99396 6.3505 2.99396Z" fill="#D988FF"/>
    </g>
    <defs>
        <clipPath id="clip0_583_1671">
            <rect width="12" height="12" fill="white"/>
        </clipPath>
    </defs>
</svg>