<svg xmlns="http://www.w3.org/2000/svg" width="24" height="24" viewBox="0 0 24 24" fill="none">
    <path fill-rule="evenodd" clip-rule="evenodd" d="M6.38558 8.5699C6.62311 8.23056 7.09076 8.14804 7.4301 8.38557L12 11.5845L16.5699 8.38557C16.9092 8.14804 17.3769 8.23056 17.6144 8.5699C17.852 8.90924 17.7694 9.37689 17.4301 9.61442L12.4301 13.1144C12.1719 13.2952 11.8281 13.2952 11.5699 13.1144L6.5699 9.61442C6.23057 9.37689 6.14804 8.90924 6.38558 8.5699Z" fill="white"/>
    <path fill-rule="evenodd" clip-rule="evenodd" d="M4 5.75C3.30964 5.75 2.75 6.30964 2.75 7V17C2.75 17.6904 3.30964 18.25 4 18.25H20C20.6904 18.25 21.25 17.6904 21.25 17V7C21.25 6.30964 20.6904 5.75 20 5.75H4ZM1.25 7C1.25 5.48122 2.48122 4.25 4 4.25H20C21.5188 4.25 22.75 5.48122 22.75 7V17C22.75 18.5188 21.5188 19.75 20 19.75H4C2.48122 19.75 1.25 18.5188 1.25 17V7Z" fill="white"/>
</svg>