<svg width="42" height="40" viewBox="0 0 42 40" fill="none" xmlns="http://www.w3.org/2000/svg">
<rect width="42" height="40" rx="9.6" fill="#242C54"/>
<g clip-path="url(#clip0_1105_430)">
<path d="M30.989 13.4066C30.989 13.0335 30.8408 12.6758 30.577 12.412C30.3132 12.1482 29.9555 12 29.5824 12H12.3956C12.0196 12 11.6591 12.1494 11.3932 12.4152C11.1274 12.681 10.978 13.0416 10.978 13.4176C10.978 13.7935 11.1274 14.1541 11.3932 14.42C11.6591 14.6858 12.0196 14.8352 12.3956 14.8352H29.5824C29.769 14.8352 29.9537 14.7981 30.1258 14.726C30.2979 14.654 30.454 14.5484 30.5849 14.4154C30.7158 14.2825 30.8189 14.1248 30.8883 13.9516C30.9577 13.7784 30.9919 13.5932 30.989 13.4066Z" fill="#7F8BAD"/>
<path d="M29.5713 18.0352H17.7472C17.3712 18.0352 17.0106 18.1845 16.7448 18.4504C16.4789 18.7162 16.3296 19.0768 16.3296 19.4527C16.3296 19.8287 16.4789 20.1893 16.7448 20.4551C17.0106 20.721 17.3712 20.8703 17.7472 20.8703H29.5713C29.9473 20.8703 30.3079 20.721 30.5737 20.4551C30.8396 20.1893 30.9889 19.8287 30.9889 19.4527C30.9889 19.0768 30.8396 18.7162 30.5737 18.4504C30.3079 18.1845 29.9473 18.0352 29.5713 18.0352Z" fill="#7F8BAD"/>
<path d="M29.5713 24.0703H17.7472C17.3712 24.0703 17.0106 24.2197 16.7448 24.4855C16.4789 24.7514 16.3296 25.1119 16.3296 25.4879C16.3296 25.8639 16.4789 26.2244 16.7448 26.4903C17.0106 26.7561 17.3712 26.9055 17.7472 26.9055H29.5713C29.9473 26.9055 30.3079 26.7561 30.5737 26.4903C30.8396 26.2244 30.9889 25.8639 30.9889 25.4879C30.9889 25.1119 30.8396 24.7514 30.5737 24.4855C30.3079 24.2197 29.9473 24.0703 29.5713 24.0703Z" fill="#7F8BAD"/>
</g>
<defs>
<clipPath id="clip0_1105_430">
<rect width="20" height="14.9231" fill="white" transform="translate(10.989 12)"/>
</clipPath>
</defs>
</svg>
