<svg xmlns="http://www.w3.org/2000/svg" width="22" height="22" viewBox="0 0 22 22" fill="none">
    <path d="M7.81189 18.7273C7.55891 18.7274 7.30839 18.6709 7.07468 18.5612C6.84098 18.4514 6.62867 18.2904 6.44994 18.0875L2.3323 13.4223C1.88923 12.92 1.88923 12.1057 2.3323 11.6034C2.7755 11.1012 3.49393 11.1012 3.93713 11.6034L7.81189 15.995L18.0629 4.37662C18.5061 3.87446 19.2245 3.87446 19.6677 4.37662C20.1108 4.87895 20.1108 5.69321 19.6677 6.19554L9.17385 18.0875C8.99511 18.2904 8.78281 18.4514 8.5491 18.5612C8.31539 18.6709 8.06488 18.7274 7.81189 18.7273Z" fill="#E0E7FB"/>
</svg>