<svg xmlns="http://www.w3.org/2000/svg" width="20" height="20" viewBox="0 0 20 20" fill="none">
  <g clip-path="url(#clip0_951_5723)">
    <path d="M3.94334 17.2636C5.12125 17.2636 6.07614 16.3087 6.07614 15.1308C6.07614 13.9529 5.12125 12.998 3.94334 12.998C2.76543 12.998 1.81055 13.9529 1.81055 15.1308C1.81055 16.3087 2.76543 17.2636 3.94334 17.2636Z" fill="#909BA6"/>
    <path d="M17.6656 15.3723C18.6879 15.3723 19.5167 14.5435 19.5167 13.5212C19.5167 12.4988 18.6879 11.67 17.6656 11.67C16.6432 11.67 15.8145 12.4988 15.8145 13.5212C15.8145 14.5435 16.6432 15.3723 17.6656 15.3723Z" fill="#C8D2DC"/>
    <path d="M15.9745 6.03619C16.819 6.03619 17.5037 5.35156 17.5037 4.50702C17.5037 3.66248 16.819 2.97784 15.9745 2.97784C15.1299 2.97784 14.4453 3.66248 14.4453 4.50702C14.4453 5.35156 15.1299 6.03619 15.9745 6.03619Z" fill="#E9EDF1"/>
    <path d="M2.26338 12.0575C3.51341 12.0575 4.52676 11.0688 4.52676 9.84926C4.52676 8.6297 3.51341 7.64105 2.26338 7.64105C1.01335 7.64105 0 8.6297 0 9.84926C0 11.0688 1.01335 12.0575 2.26338 12.0575Z" fill="#7E8B96"/>
    <path d="M8.76466 20C9.90105 20 10.8223 19.1023 10.8223 17.995C10.8223 16.8876 9.90105 15.9899 8.76466 15.9899C7.62826 15.9899 6.70703 16.8876 6.70703 17.995C6.70703 19.1023 7.62826 20 8.76466 20Z" fill="#A2ABB8"/>
    <path d="M14.0543 19.1215C15.1339 19.1215 16.0091 18.2694 16.0091 17.2182C16.0091 16.1671 15.1339 15.3149 14.0543 15.3149C12.9748 15.3149 12.0996 16.1671 12.0996 17.2182C12.0996 18.2694 12.9748 19.1215 14.0543 19.1215Z" fill="#B9C3CD"/>
    <path d="M4.71194 6.92923C6.01878 6.92923 7.07818 5.89512 7.07818 4.61949C7.07818 3.34386 6.01878 2.30975 4.71194 2.30975C3.4051 2.30975 2.3457 3.34386 2.3457 4.61949C2.3457 5.89512 3.4051 6.92923 4.71194 6.92923Z" fill="#5F6C75"/>
    <path d="M18.2509 10.4279C19.2169 10.4279 19.9999 9.65937 19.9999 8.71135C19.9999 7.76333 19.2169 6.99481 18.2509 6.99481C17.285 6.99481 16.502 7.76333 16.502 8.71135C16.502 9.65937 17.285 10.4279 18.2509 10.4279Z" fill="#DCE6EB"/>
    <path d="M10.5848 4.98994C11.9627 4.98994 13.0798 3.8729 13.0798 2.49497C13.0798 1.11704 11.9627 0 10.5848 0C9.20688 0 8.08984 1.11704 8.08984 2.49497C8.08984 3.8729 9.20688 4.98994 10.5848 4.98994Z" fill="#4E5A61"/>
  </g>
  <defs>
    <clipPath id="clip0_951_5723">
      <rect width="20" height="20" fill="white"/>
    </clipPath>
  </defs>
</svg>