<svg xmlns="http://www.w3.org/2000/svg" width="24" height="24" viewBox="0 0 24 24" fill="none">
    <g clip-path="url(#clip0_476_28025)">
        <path d="M11.8094 23.4286C18.1213 23.4286 23.238 18.3118 23.238 12C23.238 5.68817 18.1213 0.571426 11.8094 0.571426C5.49761 0.571426 0.380859 5.68817 0.380859 12C0.380859 18.3118 5.49761 23.4286 11.8094 23.4286Z" fill="white"/>
        <path opacity="0.801" fill-rule="evenodd" clip-rule="evenodd" d="M8.64929 17.4329C8.97397 17.4329 9.11742 17.2844 9.29864 17.1082L11.0302 15.4245L8.87029 14.122" fill="#131027"/>
        <path fill-rule="evenodd" clip-rule="evenodd" d="M8.87049 14.1219L14.1043 17.9887C14.7015 18.3182 15.1325 18.1476 15.2813 17.4342L17.4117 7.39489C17.6298 6.52041 17.0784 6.12379 16.507 6.38318L3.99729 11.2069C3.14338 11.5494 3.14836 12.0258 3.84164 12.2381L7.05192 13.24L14.4841 8.55118C14.8349 8.33842 15.1569 8.45281 14.8926 8.68737" fill="#131027"/>
    </g>
    <defs>
        <clipPath id="clip0_476_28025">
            <rect width="24" height="22.8571" fill="white" transform="translate(0 0.571426)"/>
        </clipPath>
    </defs>
</svg>