<svg width="30" height="31" viewBox="0 0 30 31" fill="none" xmlns="http://www.w3.org/2000/svg">
    <g clip-path="url(#clip0_329_4723)">
        <path d="M23.6442 10.6905H6.35691C6.20128 11.2615 5.89928 11.782 5.48077 12.2006C5.06226 12.6191 4.54174 12.9211 3.9707 13.0767V18.453C4.54146 18.6084 5.06179 18.9101 5.48027 19.3282C5.89876 19.7462 6.20092 20.2663 6.35691 20.8369H23.6442C23.7998 20.2661 24.1017 19.7459 24.52 19.3276C24.9383 18.9093 25.4585 18.6074 26.0293 18.4518V13.0767C25.4584 12.921 24.938 12.619 24.5197 12.2004C24.1014 11.7819 23.7996 11.2614 23.6442 10.6905ZM15 18.6319C13.4159 18.6319 12.1317 17.3478 12.1317 15.7637C12.1317 14.1796 13.4159 12.8954 15 12.8954C16.5841 12.8954 17.8682 14.1796 17.8682 15.7637C17.8666 17.3471 16.5834 18.6303 15 18.6319Z" fill="#7F8BAD"/>
        <path d="M14.9999 14.6613C14.3911 14.6613 13.8975 15.1549 13.8975 15.7637C13.8975 16.3726 14.3911 16.8662 14.9999 16.8662C15.6088 16.8662 16.1024 16.3726 16.1024 15.7637C16.1017 15.1551 15.6085 14.6619 14.9999 14.6613Z" fill="#7F8BAD"/>
        <path d="M28.6845 6.71979H1.31435C0.588663 6.72144 0.000941767 7.30963 0 8.03532V23.495C0.00258986 24.22 0.590547 24.8067 1.31553 24.8076H28.6856C29.4102 24.806 29.9974 24.2195 30 23.495V8.03532C29.999 7.30916 29.4106 6.72079 28.6845 6.71979ZM27.7951 19.2182C27.7951 19.7058 27.3998 20.1011 26.9122 20.1011C26.0187 20.1024 25.2948 20.8263 25.2935 21.7198C25.2935 22.2074 24.8982 22.6027 24.4106 22.6027H5.59174C5.10414 22.6027 4.70884 22.2074 4.70884 21.7198C4.70754 20.8263 3.98362 20.1024 3.09017 20.1011C2.60257 20.1011 2.20727 19.7058 2.20727 19.2182V12.3115C2.20727 11.8239 2.60257 11.4286 3.09017 11.4286C3.9845 11.4273 4.70884 10.7019 4.70884 9.80761C4.70884 9.32001 5.10414 8.9247 5.59174 8.9247H24.4106C24.8982 8.9247 25.2935 9.32001 25.2935 9.80761C25.2935 10.7019 26.0179 11.4273 26.9122 11.4286C27.3998 11.4286 27.7951 11.8239 27.7951 12.3115V19.2182Z" fill="#7F8BAD"/>
    </g>
    <defs>
        <clipPath id="clip0_329_4723">
            <rect width="30" height="30" fill="white" transform="translate(0 0.763672)"/>
        </clipPath>
    </defs>
</svg>