<svg xmlns="http://www.w3.org/2000/svg" width="22" height="22" viewBox="0 0 22 22" fill="none">
    <path fill-rule="evenodd" clip-rule="evenodd" d="M13.9696 2.09524V6.28573H12.4065V2.09524C12.4065 1.79747 12.1563 1.65413 11.9896 1.65413C11.9359 1.65445 11.8828 1.66569 11.8333 1.68721L3.56941 4.98446C3.01707 5.20498 2.66274 5.75635 2.66274 6.3849V7.12379C1.71448 7.87368 1.09961 9.07569 1.09961 10.432V6.3849C1.09961 5.07263 1.86034 3.90371 3.01707 3.44059L11.2914 0.132344C11.5207 0.0440858 11.7603 0 11.9896 0C13.0317 0 13.9696 0.89332 13.9696 2.09524ZM20.8992 13.7294V14.8321C20.8992 15.1298 20.6804 15.3724 20.3886 15.3835H18.8671C18.3148 15.3835 17.8146 14.9534 17.7729 14.38C17.7417 14.0381 17.8667 13.7183 18.0751 13.4978C18.2627 13.2883 18.5232 13.178 18.8046 13.178H20.3782C20.6804 13.189 20.8992 13.4316 20.8992 13.7294ZM19.8575 12.0201H18.7945C18.211 12.0201 17.6795 12.2627 17.2939 12.6817C16.7729 13.2221 16.5123 14.0271 16.7312 14.8652C16.9917 15.8908 17.9505 16.5413 18.9509 16.5413H19.8575C20.4307 16.5413 20.8996 17.0376 20.8996 17.6442V17.8537C20.8996 20.1364 19.1385 22 16.9813 22H5.01795C2.86074 22 1.09961 20.1364 1.09961 17.8537V10.432C1.09961 9.07569 1.71448 7.87368 2.66274 7.12379C3.31927 6.59441 4.13206 6.28581 5.01795 6.28581H16.9813C19.1385 6.28581 20.8996 8.14945 20.8996 10.4321V10.9173C20.8996 11.5239 20.4307 12.0201 19.8575 12.0201ZM5.78907 11.7996H13.0838C13.5111 11.7996 13.8654 11.4246 13.8654 10.9725C13.8654 10.5204 13.5111 10.1454 13.0838 10.1454H5.78916C5.36181 10.1454 5.00747 10.5204 5.00747 10.9725C5.00747 11.4246 5.36181 11.7996 5.78907 11.7996Z" fill="#191D3E"/>
</svg>