<svg xmlns="http://www.w3.org/2000/svg" width="24" height="24" viewBox="0 0 24 24" fill="none">
    <g clip-path="url(#clip0_476_28032)">
        <path d="M11.8094 23.4286C18.1213 23.4286 23.238 18.3118 23.238 12C23.238 5.68817 18.1213 0.571426 11.8094 0.571426C5.49761 0.571426 0.380859 5.68817 0.380859 12C0.380859 18.3118 5.49761 23.4286 11.8094 23.4286Z" fill="white"/>
        <path d="M19.6526 7.42101C19.1876 6.59387 18.6829 6.44172 17.6554 6.38386C16.629 6.31422 14.0479 6.28529 11.8119 6.28529C9.5715 6.28529 6.98935 6.31422 5.964 6.38279C4.93864 6.44172 4.43292 6.59279 3.96364 7.42101C3.48471 8.24708 3.23828 9.66994 3.23828 12.1749V12.1782V12.1814V12.1835C3.23828 14.6778 3.48471 16.1114 3.96364 16.9289C4.43292 17.756 4.93757 17.906 5.96292 17.9756C6.98935 18.0356 9.5715 18.071 11.8119 18.071C14.0479 18.071 16.629 18.0356 17.6565 17.9767C18.684 17.9071 19.1886 17.7571 19.6536 16.9299C20.1369 16.1124 20.3811 14.6789 20.3811 12.1846V12.1792V12.176C20.3811 9.66994 20.1369 8.24708 19.6526 7.42101ZM9.66685 15.3924V8.96386L15.024 12.1782L9.66685 15.3924Z" fill="#131027"/>
    </g>
    <defs>
        <clipPath id="clip0_476_28032">
            <rect width="24" height="22.8571" fill="white" transform="translate(0 0.571426)"/>
        </clipPath>
    </defs>
</svg>