<svg xmlns="http://www.w3.org/2000/svg" width="17" height="16" viewBox="0 0 17 16" fill="none">
        <path fill-rule="evenodd" clip-rule="evenodd" d="M2.46293 11.8847L8.06293 14.9958C8.33476 15.1468 8.66527 15.1468 8.93709 14.9958L14.5371 11.8847C14.8228 11.7259 15 11.4248 15 11.0979L15 4.90199C15 4.57514 14.8228 4.27399 14.5371 4.11525L8.93709 1.00414C8.66527 0.853131 8.33475 0.853132 8.06293 1.00414L2.46292 4.11525C2.1772 4.27399 2 4.57514 2 4.902L2.00001 11.0979C2.00001 11.4248 2.17722 11.7259 2.46293 11.8847ZM14 11.0391L9.00001 13.8169V8.29429L14 5.51651L14 11.0391ZM13.4705 4.66669L8.49993 7.42815L3.52938 4.66674L8.50001 1.90528L13.4705 4.66669Z" fill="#E0E6FF"/>
</svg>