<svg xmlns="http://www.w3.org/2000/svg" width="13" height="13" viewBox="0 0 13 13" fill="none">
    <path fill-rule="evenodd" clip-rule="evenodd" d="M4 2.25C4 1.2835 4.7835 0.5 5.75 0.5C6.23965 0.5 6.68235 0.701115 7 1.02525C7.31765 0.701115 7.76035 0.5 8.25 0.5C9.2165 0.5 10 1.2835 10 2.25C10 2.5184 9.9396 2.77269 9.8316 3H11C11.2761 3 11.5 3.22386 11.5 3.5V4C11.5 4.27615 11.2761 4.5 11 4.5H3C2.72386 4.5 2.5 4.27615 2.5 4V3.5C2.5 3.22386 2.72386 3 3 3H4.1684C4.0604 2.77269 4 2.5184 4 2.25ZM6.5 3V2.25C6.5 1.83579 6.1642 1.5 5.75 1.5C5.3358 1.5 5 1.83579 5 2.25C5 2.66422 5.3358 3 5.75 3H6.5ZM8.25 3C8.6642 3 9 2.66422 9 2.25C9 1.83579 8.6642 1.5 8.25 1.5C7.8358 1.5 7.5 1.83579 7.5 2.25V3H8.25ZM0 7.5V12.5C0 12.7761 0.22386 13 0.5 13H1C1.27614 13 1.5 12.7761 1.5 12.5V7.5C1.5 7.22385 1.27614 7 1 7H0.5C0.22386 7 0 7.22385 0 7.5ZM7.40715 12.5H2.88192C2.67099 12.5 2.5 12.329 2.5 12.1181V8.3358C2.5 8.14465 2.64375 7.98405 2.83376 7.9629L5.86215 7.62645C6.46915 7.559 7 8.0341 7 8.64485C7 9.14005 6.64585 9.5644 6.15865 9.653L4.25 10H7.75L11.4805 7.9275C11.9169 7.6851 12.4659 7.81405 12.7487 8.22535C13.0454 8.65685 12.9453 9.246 12.5227 9.5553L9.38185 11.8545C8.80885 12.2739 8.1172 12.5 7.40715 12.5ZM6.5 5.5H3.5V6.88275L5.75175 6.63255C6.01125 6.6037 6.2637 6.62505 6.5 6.68845V5.5ZM10.5 5.5V7.32825L7.9987 8.7179C7.99955 8.6936 8 8.66925 8 8.64485C8 8.13165 7.8103 7.6669 7.5 7.3125V5.5H10.5Z" fill="#E0E6FF"/>
</svg>