<svg xmlns="http://www.w3.org/2000/svg" width="17" height="16" viewBox="0 0 17 16" fill="none">
    <path fill-rule="evenodd" clip-rule="evenodd" d="M1.5 1.66667H2.34262C2.97391 1.66667 3.55101 2.02334 3.83333 2.58798L4.03934 3.00001H12.8378C13.9041 3.00001 14.6961 3.98737 14.4648 5.02822L13.7241 8.36156C13.5546 9.12412 12.8783 9.66667 12.0971 9.66667H6.23623C5.45506 9.66667 4.77871 9.12412 4.60925 8.36156L3.51684 3.44571L3.23705 2.88612C3.06766 2.54734 2.72139 2.33334 2.34262 2.33334H1.5V1.66667ZM4.24887 3.66667L5.26004 8.21694C5.36172 8.67447 5.76753 9 6.23623 9H12.0971C12.5658 9 12.9716 8.67447 13.0733 8.21694L13.814 4.8836C13.9528 4.25909 13.4776 3.66667 12.8378 3.66667H4.24887ZM6.5 11.6667C5.94771 11.6667 5.5 12.1144 5.5 12.6667C5.5 13.219 5.94771 13.6667 6.5 13.6667C7.05228 13.6667 7.5 13.219 7.5 12.6667C7.5 12.1144 7.05228 11.6667 6.5 11.6667ZM4.83333 12.6667C4.83333 11.7462 5.57952 11 6.5 11C7.42047 11 8.16667 11.7462 8.16667 12.6667C8.16667 13.5871 7.42047 14.3333 6.5 14.3333C5.57952 14.3333 4.83333 13.5871 4.83333 12.6667ZM11.8333 11.6667C11.281 11.6667 10.8333 12.1144 10.8333 12.6667C10.8333 13.219 11.281 13.6667 11.8333 13.6667C12.3856 13.6667 12.8333 13.219 12.8333 12.6667C12.8333 12.1144 12.3856 11.6667 11.8333 11.6667ZM10.1667 12.6667C10.1667 11.7462 10.9129 11 11.8333 11C12.7538 11 13.5 11.7462 13.5 12.6667C13.5 13.5871 12.7538 14.3333 11.8333 14.3333C10.9129 14.3333 10.1667 13.5871 10.1667 12.6667Z" fill="#E0E6FF"/>
    <path d="M5.26004 8.21694L4.24887 3.66667H12.8378C13.4776 3.66667 13.9528 4.25909 13.814 4.8836L13.0733 8.21694C12.9716 8.67447 12.5658 9 12.0971 9H6.23623C5.76753 9 5.36172 8.67447 5.26004 8.21694Z" fill="#E0E6FF"/>
    <path d="M5.5 12.6667C5.5 12.1144 5.94771 11.6667 6.5 11.6667C7.05228 11.6667 7.5 12.1144 7.5 12.6667C7.5 13.219 7.05228 13.6667 6.5 13.6667C5.94771 13.6667 5.5 13.219 5.5 12.6667Z" fill="#E0E6FF"/>
    <path d="M10.8333 12.6667C10.8333 12.1144 11.281 11.6667 11.8333 11.6667C12.3856 11.6667 12.8333 12.1144 12.8333 12.6667C12.8333 13.219 12.3856 13.6667 11.8333 13.6667C11.281 13.6667 10.8333 13.219 10.8333 12.6667Z" fill="#E0E6FF"/>
</svg>