<svg xmlns="http://www.w3.org/2000/svg" width="17" height="16" viewBox="0 0 17 16" fill="none">
    <path d="M4 6.01135V4.45141C4 4.33739 4.05937 4.25188 4.17812 4.19487L8.75 2L13.3218 4.19487C13.4406 4.25188 13.5 4.33739 13.5 4.45141V6.01135C13.5 6.2109 13.2922 6.35345 13.0844 6.2679L8.75 4.18707L4.41563 6.2679C4.2375 6.35345 4 6.2109 4 6.01135Z" fill="#E0E6FF"/>
    <path d="M4 8.30585V9.8658C4 10.0653 4.2375 10.2078 4.41563 10.1223L8.75 8.0415L13.0844 10.1223C13.2922 10.2078 13.5 10.0653 13.5 9.8658V8.30585C13.5 8.1918 13.4406 8.1063 13.3218 8.0493L8.75 5.85445L4.17812 8.0493C4.05937 8.1063 4 8.1918 4 8.30585Z" fill="#E0E6FF"/>
    <path d="M4 12.1582V13.7182C4 13.9177 4.2375 14.0602 4.41563 13.9747L8.75 11.8939L13.0844 13.9747C13.2922 14.0602 13.5 13.9177 13.5 13.7182V12.1582C13.5 12.0442 13.4406 11.9587 13.3218 11.9017L8.75 9.70676L4.17812 11.9017C4.05937 11.9587 4 12.0442 4 12.1582Z" fill="#E0E6FF"/>
</svg>