<svg xmlns="http://www.w3.org/2000/svg" width="20" height="20" viewBox="0 0 20 20" fill="none">
    <path d="M10.0002 3.95831C13.3369 3.95831 16.0418 6.66326 16.0418 9.99998C16.0418 13.3367 13.3369 16.0416 10.0002 16.0416C6.97202 16.0416 4.46321 13.8133 4.02604 10.907C3.9747 10.5657 3.65636 10.3306 3.31503 10.3819C2.97369 10.4333 2.7386 10.7516 2.78995 11.0929C3.31775 14.6017 6.34426 17.2916 10.0002 17.2916C14.0272 17.2916 17.2918 14.0271 17.2918 9.99998C17.2918 5.9729 14.0272 2.70831 10.0002 2.70831C7.48543 2.70831 5.26899 3.98126 3.9585 5.91642V4.99998C3.9585 4.6548 3.67867 4.37498 3.3335 4.37498C2.98832 4.37498 2.7085 4.6548 2.7085 4.99998V6.99998C2.7085 7.6213 3.21218 8.12498 3.8335 8.12498H5.8335C6.17867 8.12498 6.4585 7.84516 6.4585 7.49998C6.4585 7.1548 6.17867 6.87498 5.8335 6.87498H4.82827C5.8874 5.12594 7.80797 3.95831 10.0002 3.95831Z" fill="white" fill-opacity="0.6"/>
    <path d="M8.9585 10.8333C8.9585 11.1785 9.23832 11.4583 9.5835 11.4583H12.9168C13.262 11.4583 13.5418 11.1785 13.5418 10.8333C13.5418 10.4881 13.262 10.2083 12.9168 10.2083H10.2085V7.49998C10.2085 7.1548 9.92867 6.87498 9.5835 6.87498C9.23832 6.87498 8.9585 7.1548 8.9585 7.49998V10.8333Z" fill="white" fill-opacity="0.6"/>
</svg>