<svg xmlns="http://www.w3.org/2000/svg" width="20" height="20" viewBox="0 0 20 20" fill="none">
    <path fill-rule="evenodd" clip-rule="evenodd" d="M2.45367 14.8558L9.45367 18.7447C9.79344 18.9335 10.2066 18.9335 10.5464 18.7447L17.5464 14.8558C17.9035 14.6574 18.125 14.281 18.125 13.8724L18.125 6.12747C18.125 5.71891 17.9035 5.34246 17.5463 5.14405L10.5464 1.25516C10.2066 1.06639 9.79344 1.0664 9.45367 1.25516L2.45365 5.14405C2.0965 5.34246 1.875 5.71891 1.875 6.12748L1.87502 13.8724C1.87502 14.281 2.09652 14.6574 2.45367 14.8558ZM16.875 13.7989L10.625 17.2711V10.3678L16.875 6.89562L16.875 13.7989ZM16.2132 5.83335L9.99992 9.28517L3.78672 5.8334L10 2.38158L16.2132 5.83335Z" fill="#E2E3E6" fill-opacity="0.6"/>
</svg>