<svg xmlns="http://www.w3.org/2000/svg" width="20" height="20" viewBox="0 0 20 20" fill="none">
    <path d="M8.67161 2.77361C8.83074 2.77361 8.98335 2.71039 9.09587 2.59787C9.20839 2.48535 9.27161 2.33274 9.27161 2.17361C9.27161 2.01448 9.20839 1.86187 9.09587 1.74934C8.98335 1.63682 8.83074 1.57361 8.67161 1.57361H4.07461C2.63861 1.57361 1.47461 2.73761 1.47461 4.17361V15.8262C1.47461 17.2622 2.63861 18.4262 4.07461 18.4262H8.67161C8.83074 18.4262 8.98335 18.363 9.09587 18.2505C9.20839 18.138 9.27161 17.9853 9.27161 17.8262C9.27161 17.6671 9.20839 17.5145 9.09587 17.4019C8.98335 17.2894 8.83074 17.2262 8.67161 17.2262H4.07461C3.70331 17.2262 3.34721 17.0787 3.08466 16.8162C2.82211 16.5536 2.67461 16.1975 2.67461 15.8262V4.17361C2.67461 3.80231 2.82211 3.44621 3.08466 3.18366C3.34721 2.92111 3.70331 2.77361 4.07461 2.77361H8.67161Z" fill="white"/>
    <path d="M14.4048 5.36838C14.2923 5.25585 14.1396 5.19263 13.9805 5.19263C13.8214 5.19263 13.6687 5.25585 13.5562 5.36838C13.4437 5.48091 13.3804 5.63353 13.3804 5.79268C13.3804 5.95182 13.4437 6.10445 13.5562 6.21698L16.5262 9.18698H5.6C5.44087 9.18698 5.28826 9.25019 5.17574 9.36271C5.06321 9.47523 5 9.62785 5 9.78698C5 9.94611 5.06321 10.0987 5.17574 10.2112C5.28826 10.3238 5.44087 10.387 5.6 10.387H16.4852L13.5564 13.3156C13.5007 13.3713 13.4565 13.4374 13.4263 13.5102C13.3962 13.583 13.3806 13.6611 13.3806 13.7399C13.3806 13.8187 13.3962 13.8967 13.4263 13.9695C13.4565 14.0423 13.5007 14.1085 13.5564 14.1642C13.6121 14.2199 13.6783 14.2641 13.7511 14.2943C13.8239 14.3244 13.9019 14.3399 13.9807 14.3399C14.0595 14.3399 14.1375 14.3244 14.2103 14.2943C14.2831 14.2641 14.3493 14.2199 14.405 14.1642L18.35 10.2192C18.4058 10.1635 18.4501 10.0973 18.4802 10.0244C18.5103 9.95155 18.5258 9.87343 18.5256 9.79458V9.78698C18.5256 9.77798 18.5256 9.76918 18.5252 9.76038C18.5284 9.6778 18.5145 9.59545 18.4843 9.51851C18.4541 9.44158 18.4083 9.37173 18.3498 9.31338L14.4048 5.36838Z" fill="white"/>
</svg>