<svg xmlns="http://www.w3.org/2000/svg" width="20" height="20" viewBox="0 0 20 20" fill="none">
    <path fill-rule="evenodd" clip-rule="evenodd" d="M6.59574 11.0811C3.65806 11.0811 1.2766 13.5012 1.2766 16.4865V17.3514C1.2766 17.7096 0.99082 18 0.638298 18C0.285776 18 0 17.7096 0 17.3514V16.4865C0 12.7847 2.95302 9.78378 6.59574 9.78378C10.2385 9.78378 13.1915 12.7847 13.1915 16.4865V17.3514C13.1915 17.7096 12.9057 18 12.5532 18C12.2007 18 11.9149 17.7096 11.9149 17.3514V16.4865C11.9149 13.5012 9.53343 11.0811 6.59574 11.0811Z" fill="white" fill-opacity="0.6"/>
    <path fill-rule="evenodd" clip-rule="evenodd" d="M15.1064 8.48649C13.1088 8.48649 11.4894 10.1321 11.4894 12.1622H10.2128C10.2128 9.41567 12.4037 7.18919 15.1064 7.18919C17.8091 7.18919 20 9.41567 20 12.1622V12.5946C20 12.9528 19.7142 13.2432 19.3617 13.2432C19.0092 13.2432 18.7234 12.9528 18.7234 12.5946V12.1622C18.7234 10.1321 17.104 8.48649 15.1064 8.48649Z" fill="white" fill-opacity="0.6"/>
    <path fill-rule="evenodd" clip-rule="evenodd" d="M6.59574 4.16216C5.06815 4.16216 3.82979 5.42061 3.82979 6.97297C3.82979 8.52534 5.06815 9.78378 6.59574 9.78378C8.12334 9.78378 9.3617 8.52534 9.3617 6.97297C9.3617 5.42061 8.12334 4.16216 6.59574 4.16216ZM2.55319 6.97297C2.55319 4.70413 4.3631 2.86486 6.59574 2.86486C8.82839 2.86486 10.6383 4.70413 10.6383 6.97297C10.6383 9.24182 8.82839 11.0811 6.59574 11.0811C4.3631 11.0811 2.55319 9.24182 2.55319 6.97297Z" fill="white" fill-opacity="0.6"/>
    <path fill-rule="evenodd" clip-rule="evenodd" d="M15.1064 3.2973C14.0488 3.2973 13.1915 4.16853 13.1915 5.24324C13.1915 6.31796 14.0488 7.18919 15.1064 7.18919C16.1639 7.18919 17.0213 6.31796 17.0213 5.24324C17.0213 4.16853 16.1639 3.2973 15.1064 3.2973ZM11.9149 5.24324C11.9149 3.45205 13.3438 2 15.1064 2C16.869 2 18.2979 3.45205 18.2979 5.24324C18.2979 7.03444 16.869 8.48649 15.1064 8.48649C13.3438 8.48649 11.9149 7.03444 11.9149 5.24324Z" fill="white" fill-opacity="0.6"/>
</svg>