<svg xmlns="http://www.w3.org/2000/svg" width="20" height="20" viewBox="0 0 20 20" fill="none">
    <path fill-rule="evenodd" clip-rule="evenodd" d="M8.54623 1.50756C8.61849 1.23299 8.86674 1.04163 9.15065 1.04163H10.7793C11.0633 1.04163 11.3116 1.23314 11.3838 1.50785L11.8234 3.18171L13.4381 3.84576L14.5938 2.85816C14.8418 2.64622 15.2111 2.66067 15.4418 2.89135L17.1084 4.55802C17.3382 4.78781 17.3536 5.15535 17.1438 5.4035L16.1603 6.56668L16.8094 8.13426L18.4872 8.5609C18.7642 8.63135 18.9582 8.8808 18.9582 9.16667L18.9581 10.8143C18.958 11.0989 18.7658 11.3475 18.4904 11.4191L16.8032 11.8582L16.1531 13.4279L17.1432 14.5958C17.3536 14.8439 17.3385 15.2119 17.1084 15.4419L15.4418 17.1086C15.207 17.3433 14.8297 17.3536 14.5826 17.1319L14.5363 17.0906C14.5063 17.0638 14.4629 17.0251 14.4096 16.9779C14.3031 16.8833 14.1574 16.7547 14.0005 16.6182C13.8071 16.4499 13.6087 16.28 13.4473 16.1468L11.8658 16.8017L11.439 18.4867C11.3688 18.7641 11.1192 18.9583 10.8332 18.9583H9.1665C8.88027 18.9583 8.63061 18.7638 8.56053 18.4863L8.13512 16.8018L6.59884 16.1698L5.39467 17.1511C5.14612 17.3537 4.78462 17.3353 4.5579 17.1086L2.89123 15.4419C2.65698 15.2077 2.6462 14.8313 2.86664 14.5841L3.86698 13.4619L3.20958 11.9024L1.5019 11.4362C1.23006 11.362 1.0415 11.1151 1.0415 10.8333V9.16663C1.0415 8.87617 1.24161 8.62399 1.52446 8.55798L3.18652 8.17011L3.82604 6.59775L2.84809 5.39407C2.64613 5.14549 2.66476 4.78448 2.89123 4.55802L4.5579 2.89135C4.79194 2.6573 5.16788 2.64631 5.41521 2.86629L6.54084 3.86747L8.09792 3.2111L8.54623 1.50756ZM9.63245 2.29163L9.22849 3.82663C9.17914 4.01416 9.04554 4.16816 8.86685 4.24349L6.66295 5.17252C6.44092 5.26611 6.18485 5.22374 6.00481 5.0636L5.02494 4.19207L4.17369 5.04333L5.02939 6.09656C5.17321 6.27357 5.20918 6.51487 5.12325 6.72614L4.22253 8.9407C4.1461 9.12863 3.9832 9.26777 3.78563 9.31388L2.2915 9.66256V10.356L3.83204 10.7766C4.01716 10.8272 4.16881 10.9599 4.24335 11.1368L5.17222 13.3403C5.26591 13.5626 5.22334 13.8189 5.06282 13.999L4.19243 14.9753L5.04261 15.8255L6.09764 14.9657C6.27539 14.8209 6.5182 14.785 6.73026 14.8722L8.9018 15.7656C9.08492 15.8409 9.22151 15.9985 9.26999 16.1905L9.65329 17.7083H10.3467L10.7311 16.1908C10.7795 15.9995 10.9155 15.8423 11.0978 15.7668L13.3066 14.8521C13.5059 14.7696 13.7337 14.7957 13.9092 14.9211C14.1228 15.0738 14.511 15.4054 14.8212 15.6754C14.8737 15.721 14.9249 15.7658 14.9738 15.8087L15.8175 14.965L14.953 13.9453C14.8016 13.7667 14.7627 13.5184 14.8523 13.302L15.7673 11.0925C15.8422 10.9115 15.9977 10.7761 16.1873 10.7268L17.7081 10.3311L17.7081 9.65258L16.1978 9.26851C16.0067 9.21993 15.8498 9.08405 15.7744 8.90192L14.8597 6.69308C14.7702 6.47699 14.8088 6.22902 14.9598 6.05042L15.8181 5.0354L14.9665 4.18388L13.9598 5.04422C13.7815 5.19658 13.5329 5.23631 13.316 5.14712L11.0603 4.21944C10.879 4.14491 10.7433 3.98971 10.6935 3.80018L10.2972 2.29163H9.63245ZM9.99984 8.12496C8.9643 8.12496 8.12484 8.96443 8.12484 9.99996C8.12484 11.0355 8.9643 11.875 9.99984 11.875C11.0354 11.875 11.8748 11.0355 11.8748 9.99996C11.8748 8.96443 11.0354 8.12496 9.99984 8.12496ZM6.87484 9.99996C6.87484 8.27407 8.27395 6.87496 9.99984 6.87496C11.7257 6.87496 13.1248 8.27407 13.1248 9.99996C13.1248 11.7258 11.7257 13.125 9.99984 13.125C8.27395 13.125 6.87484 11.7258 6.87484 9.99996Z" fill="white" fill-opacity="0.6"/>
</svg>