<svg xmlns="http://www.w3.org/2000/svg" width="20" height="20" viewBox="0 0 20 20" fill="none">
    <path d="M4.375 7.51419V5.56426C4.375 5.42174 4.44922 5.31484 4.59766 5.24358L10.3125 2.5L16.0273 5.24358C16.1757 5.31484 16.25 5.42174 16.25 5.56426V7.51419C16.25 7.76363 15.9903 7.94181 15.7305 7.83488L10.3125 5.23384L4.89453 7.83488C4.67188 7.94181 4.375 7.76363 4.375 7.51419Z" fill="white" fill-opacity="0.6"/>
    <path d="M4.375 10.3824V12.3323C4.375 12.5817 4.67188 12.7599 4.89453 12.653L10.3125 10.0519L15.7305 12.653C15.9903 12.7599 16.25 12.5817 16.25 12.3323V10.3824C16.25 10.2398 16.1757 10.1329 16.0273 10.0617L10.3125 7.31812L4.59766 10.0617C4.44922 10.1329 4.375 10.2398 4.375 10.3824Z" fill="white" fill-opacity="0.6"/>
    <path d="M4.375 15.1978V17.1477C4.375 17.3971 4.67188 17.5753 4.89453 17.4684L10.3125 14.8674L15.7305 17.4684C15.9903 17.5753 16.25 17.3971 16.25 17.1477V15.1977C16.25 15.0552 16.1757 14.9484 16.0273 14.8771L10.3125 12.1335L4.59766 14.8771C4.44922 14.9484 4.375 15.0552 4.375 15.1978Z" fill="white" fill-opacity="0.6"/>
</svg>