<svg xmlns="http://www.w3.org/2000/svg" width="26" height="22" viewBox="0 0 26 22" fill="none">
    <g clip-path="url(#clip0_476_28012)">
        <path d="M1.78073 9.30965L16.2641 3.40312C17.6943 2.78859 22.5431 0.821225 22.5431 0.821225C22.5431 0.821225 24.7813 -0.0408807 24.5945 2.05138C24.5326 2.91349 24.0352 5.92643 23.5378 9.18696L21.9838 18.8436C21.9838 18.8436 21.8589 20.2584 20.8023 20.5049C19.7457 20.7513 18.006 19.6427 17.6943 19.3974C17.4456 19.2128 13.0323 16.4452 11.4164 15.0913C10.9809 14.7221 10.4836 13.9849 11.4783 13.1239C13.6925 11.1147 15.8685 9.06374 18.0049 6.97201C18.7509 6.2337 19.497 4.5117 16.389 6.60286L7.62425 12.4464C7.62425 12.4464 6.62952 13.062 4.76383 12.5083C2.89925 11.9545 0.724095 11.2151 0.724095 11.2151C0.724095 11.2151 -0.768011 10.2944 1.78073 9.30965Z" fill="#B7BCDB"/>
    </g>
    <defs>
        <clipPath id="clip0_476_28012">
            <rect width="26" height="21" fill="white" transform="translate(0 0.644287)"/>
        </clipPath>
    </defs>
</svg>