<svg xmlns="http://www.w3.org/2000/svg" width="26" height="22" viewBox="0 0 26 22" fill="none">
    <g clip-path="url(#clip0_476_28007)">
        <path d="M19.7129 5.74281C19.5736 5.67065 19.4381 5.59155 19.3069 5.50581C18.9249 5.25335 18.5748 4.95588 18.2639 4.61981C17.4859 3.72981 17.1959 2.82781 17.0889 2.19581H17.0929C17.0029 1.67081 17.0409 1.33081 17.0459 1.33081H13.5039V15.0288C13.5039 15.2128 13.5039 15.3948 13.4959 15.5738C13.4959 15.5968 13.4939 15.6168 13.4929 15.6408C13.4929 15.6508 13.4929 15.6608 13.4909 15.6708V15.6798C13.4535 16.1713 13.2958 16.6461 13.0318 17.0623C12.7678 17.4785 12.4055 17.8235 11.9769 18.0668C11.5304 18.3209 11.0255 18.4543 10.5119 18.4538C10.1181 18.4526 9.72847 18.3739 9.36518 18.222C9.00188 18.0702 8.67207 17.8483 8.39458 17.5689C8.11709 17.2896 7.89737 16.9583 7.74797 16.594C7.59857 16.2297 7.52241 15.8396 7.52386 15.4458C7.52241 15.0521 7.59857 14.6619 7.74797 14.2976C7.89737 13.9333 8.11709 13.602 8.39458 13.3227C8.67207 13.0433 9.00188 12.8214 9.36518 12.6696C9.72847 12.5177 10.1181 12.439 10.5119 12.4378C10.8239 12.4378 11.1349 12.4868 11.4319 12.5838L11.4359 8.97681C10.5342 8.86032 9.61812 8.93196 8.74551 9.1872C7.87289 9.44245 7.06264 9.87576 6.36586 10.4598C5.75528 10.9902 5.24192 11.623 4.84886 12.3298C4.69886 12.5878 4.13486 13.6238 4.06686 15.3058C4.02386 16.2598 4.30986 17.2488 4.44686 17.6568V17.6668C4.53286 17.9068 4.86686 18.7268 5.40886 19.4198C5.84634 19.9752 6.36322 20.4631 6.94286 20.8678V20.8588L6.95186 20.8678C8.66686 22.0328 10.5679 21.9558 10.5679 21.9558C10.8979 21.9428 11.9999 21.9558 13.2519 21.3628C14.6409 20.7048 15.4319 19.7248 15.4319 19.7248C15.9366 19.1393 16.338 18.4721 16.6189 17.7518C16.9389 16.9088 17.0459 15.8978 17.0459 15.4938V8.22781C17.0889 8.25281 17.6619 8.63181 17.6619 8.63181C17.6619 8.63181 18.4859 9.15981 19.7719 9.50481C20.6959 9.74981 21.9389 9.80081 21.9389 9.80081V6.28481C21.5029 6.33181 20.6189 6.19481 19.7129 5.74281Z" fill="#B7BCDB"/>
    </g>
    <defs>
        <clipPath id="clip0_476_28007">
            <rect width="26" height="21" fill="white" transform="translate(0 0.644287)"/>
        </clipPath>
    </defs>
</svg>