<svg xmlns="http://www.w3.org/2000/svg" width="26" height="22" viewBox="0 0 26 22" fill="none">
    <g clip-path="url(#clip0_476_28002)">
        <path fill-rule="evenodd" clip-rule="evenodd" d="M3.9763 2.12059C2.5 3.59689 2.5 5.97304 2.5 10.7243V11.5643C2.5 16.3155 2.5 18.6917 3.9763 20.168C5.4526 21.6443 7.82875 21.6443 12.58 21.6443H13.42C18.1712 21.6443 20.5474 21.6443 22.0237 20.168C23.5 18.6917 23.5 16.3155 23.5 11.5643V10.7243C23.5 5.97304 23.5 3.59689 22.0237 2.12059C20.5474 0.644287 18.1712 0.644287 13.42 0.644287H12.58C7.82875 0.644287 5.4526 0.644287 3.9763 2.12059ZM6.04375 7.03144C6.15715 12.4914 8.88715 15.7727 13.6741 15.7727H13.945V12.6489C15.7037 12.8243 17.0341 14.1105 17.5675 15.7727H20.0528C19.3703 13.2884 17.5759 11.9139 16.4566 11.3889C17.5759 10.7421 19.1509 9.16714 19.5278 7.03144H17.2703C16.78 8.76394 15.3278 10.3389 13.945 10.488V7.03144H11.6875V13.0868C10.2878 12.7371 8.51965 11.0393 8.4409 7.03144H6.04375Z" fill="#B7BCDB"/>
    </g>
    <defs>
        <clipPath id="clip0_476_28002">
            <rect width="26" height="21" fill="white" transform="translate(0 0.644287)"/>
        </clipPath>
    </defs>
</svg>