<svg xmlns="http://www.w3.org/2000/svg" width="26" height="22" viewBox="0 0 26 22" fill="none">
    <path fill-rule="evenodd" clip-rule="evenodd" d="M24.5816 3.67555C24.9858 4.07855 25.2765 4.58082 25.4266 5.13273C26.2846 8.58955 26.0861 14.0484 25.4432 17.6387C25.2938 18.1899 25.0027 18.6924 24.5988 19.0961C24.1949 19.4999 23.6923 19.7907 23.141 19.9397C21.1236 20.4905 13.0033 20.4905 13.0033 20.4905C13.0033 20.4905 4.88306 20.4905 2.86452 19.9397C2.31344 19.7905 1.81105 19.4996 1.40735 19.0959C1.00365 18.6922 0.712721 18.1898 0.563517 17.6387C-0.29921 14.1973 -0.0628467 8.73373 0.546971 5.14928C0.696068 4.59815 0.986962 4.0957 1.39068 3.69199C1.79439 3.28827 2.29684 2.99737 2.84797 2.84828C4.86652 2.29755 12.988 2.28101 12.988 2.28101C12.988 2.28101 21.1082 2.28101 23.1256 2.83173C23.6775 2.98064 24.1798 3.27137 24.5828 3.67555H24.5816ZM17.1373 11.3857L10.401 15.2881V7.48337L17.1373 11.3857Z" fill="#B7BCDB"/>
</svg>