<svg xmlns="http://www.w3.org/2000/svg" width="18" height="18" viewBox="0 0 18 18" fill="none">
    <rect width="18" height="18" rx="5" fill="white"/>
    <path d="M6.52036 14C6.3236 14.0001 6.12875 13.9579 5.94698 13.8759C5.7652 13.7939 5.60008 13.6737 5.46106 13.5222L2.25845 10.0377C1.91385 9.66246 1.91385 9.05428 2.25845 8.67908C2.60317 8.30401 3.16194 8.30401 3.50666 8.67908L6.52036 11.9593L14.4933 3.2813C14.8381 2.90623 15.3968 2.90623 15.7415 3.2813C16.0862 3.6565 16.0862 4.26468 15.7415 4.63988L7.57966 13.5222C7.44064 13.6737 7.27552 13.7939 7.09375 13.8759C6.91197 13.9579 6.71713 14.0001 6.52036 14Z" fill="black"/>
</svg>