<svg width="42" height="43" viewBox="0 0 42 43" fill="none" xmlns="http://www.w3.org/2000/svg">
    <rect y="0.5" width="42" height="42" rx="8" fill="white"/>
    <path d="M21 5.5C29.8364 5.5 37 12.6636 37 21.5C37 30.3364 29.8364 37.5 21 37.5C12.1636 37.5 5 30.3364 5 21.5C5 12.6636 12.1636 5.5 21 5.5ZM26.5193 28.0222C26.8131 27.1196 28.1927 18.1204 28.3622 16.3465C28.4138 15.8098 28.2436 15.4527 27.912 15.2927C27.5098 15.1 26.9149 15.196 26.2233 15.4455C25.2756 15.7873 13.1629 20.9298 12.4633 21.228C11.8 21.5102 11.1724 21.8171 11.1724 22.2629C11.1724 22.5764 11.3585 22.7524 11.8705 22.9349C12.4029 23.1247 13.7447 23.5313 14.5382 23.7502C15.3018 23.9611 16.1695 23.7778 16.6567 23.4753C17.1724 23.1545 23.1302 19.1691 23.5571 18.8193C23.984 18.4702 24.3251 18.9175 23.976 19.2673C23.6269 19.6164 19.5382 23.5851 18.9985 24.1349C18.3433 24.8018 18.808 25.4935 19.248 25.7705C19.7491 26.0869 23.3564 28.5058 23.8996 28.8942C24.4429 29.2825 24.9935 29.4585 25.4982 29.4585C26.0029 29.4578 26.2684 28.7931 26.5193 28.0222Z" fill="#29B6F6"/>
</svg>