<svg width="42" height="43" viewBox="0 0 42 43" fill="none" xmlns="http://www.w3.org/2000/svg">
    <g clip-path="url(#clip0_547_68455)">
        <path d="M6.8535 0.5H35.1465C36.9642 0.5 38.7074 1.22206 39.9927 2.50734C41.2779 3.79262 42 5.53584 42 7.3535V35.6465C42 37.4642 41.2779 39.2074 39.9927 40.4927C38.7074 41.7779 36.9642 42.5 35.1465 42.5H6.852C5.03474 42.5 3.2919 41.7781 2.0069 40.4931C0.721905 39.2081 0 37.4653 0 35.648L0 7.3535C0 5.53584 0.722063 3.79262 2.00734 2.50734C3.29262 1.22206 5.03584 0.5 6.8535 0.5Z" fill="white"/>
        <g clip-path="url(#clip1_547_68455)">
            <path d="M21.0001 37.4674C29.8187 37.4674 36.9675 30.3186 36.9675 21.5C36.9675 12.6814 29.8187 5.53259 21.0001 5.53259C12.1816 5.53259 5.03271 12.6814 5.03271 21.5C5.03271 30.3186 12.1816 37.4674 21.0001 37.4674Z" fill="#FC3F1D"/>
            <path d="M26.7776 31.5237H23.2724V14.1874H21.7109C18.8487 14.1874 17.3495 15.6185 17.3495 17.7548C17.3495 20.1785 18.3835 21.3015 20.5228 22.7326L22.2858 23.9207L17.2191 31.5207H13.4502L18.0102 24.7355C15.388 22.863 13.9124 21.0348 13.9124 17.9504C13.9124 14.0955 16.5998 11.4733 21.6872 11.4733H26.7539V31.5178H26.7776V31.5237Z" fill="white"/>
        </g>
    </g>
    <defs>
        <clipPath id="clip0_547_68455">
            <rect width="42" height="42" fill="white" transform="translate(0 0.5)"/>
        </clipPath>
        <clipPath id="clip1_547_68455">
            <rect width="32" height="32" fill="white" transform="translate(5 5.5)"/>
        </clipPath>
    </defs>
</svg>